<?xml version="1.0" encoding="UTF-8"?>
<!DOCTYPE svg PUBLIC "-//W3C//DTD SVG 1.1//EN" "http://www.w3.org/Graphics/SVG/1.1/DTD/svg11.dtd">
<!-- Creator: CorelDRAW -->
<svg xmlns="http://www.w3.org/2000/svg" xml:space="preserve" width="3.30631in" height="2.47443in" version="1.1" shape-rendering="geometricPrecision" text-rendering="geometricPrecision" image-rendering="optimizeQuality" fill-rule="evenodd" clip-rule="evenodd"
viewBox="0 0 10387.3 7773.8"
 xmlns:xlink="http://www.w3.org/1999/xlink"
 xmlns:xodm="http://www.corel.com/coreldraw/odm/2003">
 <g id="Layer_x0020_1">
  <metadata id="CorelCorpID_0Corel-Layer"/>
  <path fill="#CCD3D9" d="M5433.88 3592.89c-9.29,64.49 -143.48,51.14 -213.41,91.68 -31.24,18.1 -4.53,7.03 -42.62,24.95 -96.17,45.24 -61.35,54.31 -136.6,98.36 182.57,1.18 391.36,-25.22 587.95,-10.75l189.11 49.96c54.19,15.25 121.45,59 164.96,90.56 33.7,24.47 46.25,15.42 83.33,34.93 169.98,89.4 74.78,159.06 34.53,216.53 -54.18,77.32 -32.72,70.95 -112.53,155.52l-124.86 157.24c-5.47,6.31 -23.96,31.94 -28.81,38.62l-212.79 269.66c-16.48,21.03 -33.95,46.14 -49.61,71.48l-222.17 273.23c-44.48,40.17 -74.3,98.74 -102.02,154.73 -24.37,49.19 -30.53,31.17 -46.63,68.57 -32.43,75.28 9.62,137.79 -47.85,210.1 -49.03,-13.69 -23.38,-1.2 -50.88,-35.73 -15.54,-19.52 2.39,-10.36 -30.19,-46.49 -76.45,-84.73 -68.28,-102.54 -123.04,-185.18 -46.84,-70.64 -49.12,-97.68 -122.77,-185.93 -53.09,-63.61 -92.38,-142.01 -127.14,-220.03 -17.92,-40.24 -47.52,-19.18 -32.08,-85.58l293 -251.78c90.23,-81.67 288.29,-236.24 413.04,-242.13 20.84,-81.78 42.77,-33.42 89.52,-125.38 29.76,-58.57 28,-134.71 20.77,-211.85 -114.72,-44.8 -88.26,-87.48 -257.76,-57.04 -55.98,17.55 29.82,25.86 -92.74,47.73 -88.41,15.77 -128.88,66.88 -203.81,104.1 -59.94,29.75 -91.33,61.76 -135.73,102.25 -67.9,61.92 -152.3,95.98 -218.8,157.59l-179.26 169.76c-183.92,141.6 -61.83,175.6 1.68,306.87 12.34,25.54 9.92,30.98 24.21,54.77l126.97 180.01c34.94,54.51 16.08,71.36 46.98,116.14 41.03,59.49 105.08,104.1 133.99,169.55l81.68 149.4c18.49,24.21 17.24,13.22 30.03,47.31 26.16,69.69 24.97,48.45 53.19,96.36 26.21,44.5 13.96,65.16 54.81,119.48 72.62,96.6 103.17,169.03 168.29,273.94l138.16 250.13c16.76,32.58 20.05,29.94 29.1,52.07l47.42 100.64c26.44,39.8 8.15,19.6 24.48,58.79 19.69,47.26 6.09,10.79 30.93,46.54 30.39,43.72 17.91,57.39 44.59,103.23 31.85,54.71 36.67,36.19 32.79,121.52l-50.54 -36.97c-2,-1.98 -4.8,-4.9 -6.75,-6.95l-92.17 -95.89c-18.78,-27.1 -22.34,-32.36 -46.18,-60.67l-308.44 -361.64c-1.83,-2.2 -4.42,-5.17 -6.17,-7.45l-448.71 -530.1c-94.73,-87.46 -54.35,-98.1 -138.75,-169.54 -91.58,-77.49 -93.72,-117.49 -145.2,-163 -88.76,-78.45 -121.98,-138.62 -196.42,-219.04 -119.9,-129.54 -170.38,-53.01 -215.54,-1.43 -42.59,48.62 -97.5,65.7 -129.95,122.88 -64.05,112.9 -167.84,184.63 -238.09,286.03 -74.5,107.56 -148.85,68.39 -291.35,36.09 -49.1,-11.12 -48.26,-20.8 -91.22,-38.34 -133.68,-54.62 -126.45,-10.64 -269.22,-148.47 -61.41,-59.3 -71.55,-71.63 -160.94,-19.22 -5.19,103.97 0.14,63.85 24.87,132.07l-247.94 194.05c-34.52,52.51 -35.02,132.82 10.22,174.65l125.23 102.07c160.43,78.15 354.24,148.34 539.43,151.76 105.52,1.97 115.39,-19 155.31,-79.65l45.69 -7.06c136.91,-12.41 232.72,51.6 317.48,-71.8l128.09 -140.51c63.92,-72.53 96.22,-164.5 182.87,-122.36 54.73,26.64 158.62,137.28 193.01,181.08 34.84,44.37 55.63,74.67 90.9,124.55 13.79,19.54 31.57,40.94 47.31,60.16l326.03 384.62c1.89,2.09 4.44,5.15 6.35,7.24l69.59 92.15c21.77,31.26 37.09,34.25 62.23,56.75 30.32,27.19 62.67,84.54 94.78,120.51l67.83 66.52c19.53,20.4 1.65,1.35 12.85,13.84l277.32 338.22c35.6,42.03 15.68,21.62 40.63,68.08 24.17,45.01 16.62,23.57 49.05,57.14l164.5 171.15c68.61,64.39 81.36,44.55 174.72,25.91 23.32,-233.52 -148.55,-288.3 -144.85,-466.51 43.18,21.41 171.01,210.83 257.52,287.04 86.22,75.98 85.62,127.52 239.67,89.76l5.16 -178.33c-35.09,-38.01 -53.94,-28.04 -62.15,-93.8 -6.35,-50.77 7.16,-105.53 -8.77,-153.95 -26.94,-81.84 -82.55,-113.22 -108.52,-215.92 -5.95,-23.56 -9.18,-32.12 -22.41,-55.35l-29.59 -49.99c-15.79,-24.43 -18.29,-21.18 -35.25,-44.23l-146.82 -255.27c-16.3,-27.03 -15.91,-18.58 -31.49,-49.13l-58.85 -99.99c-11.66,-28.26 -7.01,-27.04 -25.96,-55.99l-55.36 -105.41c-46.04,-78.83 -121.91,-135.9 -74.95,-235.38l36.34 -46.88c18.76,-23.6 15.98,-21.73 35.67,-43.58 48.1,-53.37 90.43,-144.12 158.32,-166.84l8.81 151.53c6.69,21.89 34.43,30.14 74.81,22.76 34.5,-6.35 149.65,-120.61 171.91,-156.6l175.45 -241.69c25.27,-40.77 46.54,-65.75 78.47,-93.17 58.5,-50.25 92.53,-131.29 154.31,-182.48 58.22,-48.24 22.2,-38.54 59.69,-101.6 31.48,-52.91 74.26,-69.02 106.73,-118.6l263.06 -341.17c37.24,-60.46 158.08,-171.8 84.18,-262.64 -29.05,-35.72 -71.79,-54.82 -79.89,-105.13 -17.17,-106.45 61.97,-192.16 -75.5,-262.39 -83.53,-42.67 -145.49,-100.42 -227.32,-145.65 -56.66,-31.32 -140.32,-16.72 -197.78,-46.22 -109.82,-56.36 -89.23,-28.13 -214.71,-38.47 -69.86,-5.76 -464,-2.59 -464,-2.59zm-2878.41 375.6c-17.85,28.87 -9.04,11.59 -52.17,44.13l-46.47 39.23c-10.22,157.24 -8.86,124.29 71.49,204.36 68.75,68.5 16.88,42.77 107.79,93.72 51.1,28.66 188.93,211.57 311.77,317.79 16.99,14.69 21.57,15.14 38.16,28.87 168.54,139.32 172.68,296.71 361.46,171.13 20.92,-13.9 26.28,-13.14 44.01,-23.2 52.28,-29.76 18.85,-26.05 74.92,-58.05 20.45,-11.65 27.58,-12.05 44.65,-23.03 167.92,-108.13 -97.29,-252.64 -256.55,-429.59 -13.69,-15.24 2.09,-0.37 -20.42,-20.35l-132.05 -121.79c-17.75,-15.14 -20.35,-20.01 -39.72,-39.81 -29.24,-29.93 -52.23,-46.2 -72.58,-73.3 61.21,-43.02 55.26,-27.68 144.02,-39.12 68.61,-8.86 74.4,-21.4 175.23,-22.31 137.07,-1.25 268.86,1.3 378.37,-27.58 178,-46.91 143.02,-0.8 278.98,182.62 21.53,29.04 20.47,21.52 44.64,61.92 25.81,43.12 55.44,85.78 81.65,119.14 79.22,4.58 155.7,-18.33 166.55,-89.55 13.78,-90.49 -51.44,-84.42 -101.76,-161.68 -14.52,-22.28 -9.78,-17.81 -26.67,-40.25 -59.3,-78.89 -18.5,-65.49 -131.38,-204.41 -46.9,-57.7 -51.32,-25.78 -64.31,-92.81l-10.41 -11.12c-110.97,-130.12 -71.96,-137.13 -204.62,-246.63 -130.37,-107.63 -885.79,22.78 -982.16,173.74 -49.82,78.03 -13.64,141.96 33.21,183.56 -46.88,47.73 -140.16,114.11 -215.62,104.38z"/>
  <path fill="#CCD3D9" d="M6680.24 6568.21c-1.21,2.49 -3.33,5.94 -4.08,7.26 -0.78,1.3 -3.17,5.68 -4.13,7.31 -73.15,122.6 -138.12,292.12 -160.16,319.87 -66,83.08 -2.28,37.23 -85.86,168.2 -17.09,26.8 -75.02,179.41 -83.17,173.11 -43.54,85.84 -101.44,168.81 -174.87,246.81 -3.75,53.51 -24.37,89.93 336.48,-87.3 91.47,-80.63 8.68,19.67 66.93,-78.58 1.58,-2.67 3.69,-6.01 5.36,-8.63l57.23 -93.69c1.05,59.23 -1.14,127.24 14.45,173.13 159.16,32.57 174.65,-37.24 254.75,-157 20.87,-31.19 32.34,-45.6 62.82,-71l55.23 -51.61c1.74,-2.1 4.45,-4.97 6.09,-7.17l10.7 -15.62c40.63,-74.89 -18.33,-22.87 69.7,-118.84 1.89,-2.04 4.42,-5.12 6.25,-7.21 86.12,-98.27 107.66,-155.72 145.25,-203.48l318.01 -418.99c46.51,-60.59 37.7,-67.74 112.57,-87 11.47,43.98 21.78,73.66 36.05,110.27 14.45,37.11 17.27,63.04 30.76,103.5 16.41,49.29 27.3,42.88 46.83,88.35l68.71 214.78c19.62,110.45 15.19,50.84 54.45,147.5l203.71 543.88c14.57,57.35 8.36,63.9 38.03,110.39 64.44,100.98 16.35,195.74 139.16,197.36 141.67,1.87 93.33,-290.9 93.32,-500.5 31.64,16.01 22.34,11.06 40.85,70.91 26.88,86.94 91.81,109.69 86.77,217.08l42.64 55.03c18.89,25.83 26.36,38.75 41.82,65.39 168.28,11.26 137.18,-68.51 134.77,-311.27 -1.2,-122.29 -1.55,-514.43 -38.12,-615.22 -27.56,-75.91 -20.19,-98.41 -22.46,-189.35 -1.88,-75.52 -16.66,-126.69 -18.11,-200.82 -1.08,-55.51 -16.97,-93.88 -11.94,-146.76 7.88,-82.66 -9.14,32.44 4.53,-21.19 14.55,-57.14 164.33,-30.56 209.08,-31.48 76.08,-1.58 151.83,-0.73 227.91,0.02 304.27,3.07 573.84,31.31 871.72,32.44 117.87,0.47 106.88,-8.61 176.01,-58.11 54.94,-39.34 117.75,-17.18 201.41,-27.61 56.2,-90.72 55.44,-152.2 -20.41,-239.45 -22.03,-25.34 -20.63,-49.31 -66.4,-34.22 126.14,-5.15 115.67,-52.85 101.65,-175.76 -55.83,-32.95 -103.43,-70.46 -161.8,-105.02 -70.8,-41.94 -123.22,-38.81 -192.04,-77.32l-92.81 -41.05c-67.03,-41.93 -105.79,-54.88 -189.5,-80.25l-384.38 -148.61c-33.9,-15.09 -60.74,-21.91 -102.8,-29.2 -229.49,-39.74 -94.68,-102.39 -462.39,-54.46 -34.79,69.52 -20.49,28.99 -42.38,56.35 -23.62,29.52 -24.73,6.2 -12.18,69.54 130.8,13.93 80.73,20.64 161.05,49.9 55.81,20.32 114.86,22.1 183.29,49.29 52.77,20.95 111.99,23.33 164.07,50.11 37.11,19.05 26.93,18.69 74.01,30.7 94.26,24.06 29.39,4.12 83.75,38.38 44.61,28.1 109.08,21.84 169.55,48.62 36.61,16.22 38.44,12.7 81.92,27.17 31.96,10.64 45.88,25.07 75.07,41.13l209.96 112.62c62,26.8 54.52,-8.04 55.42,60.93 -68.52,38.84 -289.75,-19.39 -371.66,-21.47l-1073.35 -0.73c-232.16,2.81 -172.06,25.26 -155.6,384.14 3.41,73.97 24.51,99.18 34.19,149.79 31.53,165 8.35,344.23 49.1,499.55 17.75,67.67 21.1,238.68 7.62,315.65l-15.58 44.18c-82.64,-0.53 -44.14,-8.14 -62.28,-79.31 -15.45,-60.62 -30.75,-15.99 -44.74,-98.97 -7.12,-42.25 -7.48,-88.78 -19.65,-118.07l-50.75 -94.44c-59.96,-146.38 -30.44,-119.11 -62.26,-220.1l-128.86 -282.8c-22.42,-48.18 -15.36,-71.24 -31.82,-118.59l-88.08 -190.7c-37.33,-110.7 -57.98,-122.22 -73.97,-208.13 -17.25,-92.93 -84.23,-140.87 -157.95,-63.79l-190.49 224.53c-72.1,104.37 -33.32,61.05 -128.91,152.9 -26.22,25.21 -126.69,194.92 -178.56,251.52l-179.94 234.33c-37.28,42.96 -65.16,112.32 -114.13,168.08 -30.59,34.83 -39.43,44.27 -66.41,81.92 -84.78,118.32 -78.23,128.31 -149.44,130.81 5.57,-87.4 51.29,-165.82 90.64,-230.15 14.26,-23.33 14.69,-31.65 26.37,-53.92l53.71 -105.62c48.83,-138.46 260.6,-469.38 322.56,-604.44l63.2 -109.33c33.56,-82.64 87.25,-147.18 117.58,-221.13 13.82,-33.68 46.94,-56.22 67.46,-92.98 22.83,-40.93 34.39,-77.5 60.2,-113.94 19.31,-27.26 50.44,-64.45 68.03,-91.4 11.59,-17.76 22.13,-39.1 25.67,-57.16 9.42,-48.04 -7.37,-147.51 -97.07,-55.04 -33.88,34.93 -36.33,52 -85.69,75.86 -72.91,35.23 -141.35,42.25 -134.92,156.17 11.03,195.78 -28.93,101.4 -83.95,211.74 -30.17,60.5 3.97,43.01 -45.74,104.23 -45.44,55.96 -19.04,40.42 -49.77,99.27l-268.49 469.69c-37.25,77.19 -146.41,211.43 -149.32,219.09l-27.05 65.21zm-281.57 -1363.49c87.27,10.27 194.7,80.93 264.11,96.07 131.96,28.74 181.03,-42.31 237.21,-97.73l268.09 -1.01c54.4,-73.41 116.44,-109.31 187.62,-164.73 2.3,-1.79 5.59,-4.04 7.87,-5.84 2.25,-1.78 5.38,-4.19 7.61,-6 2.16,-1.77 5.15,-4.35 7.3,-6.13l396.83 -311.99c39.49,-20.82 57.87,-49.85 102.18,-55.82 -10.18,85.08 -125.56,211.52 -206.27,243.63 -50.81,20.2 -81.2,11.79 -89.57,77.45 -16.38,128.25 149.72,78.85 189.95,39 46.72,-46.25 94.98,-138.81 128.76,-181.61 57.24,-72.52 37.7,-92.58 94.29,-134.18 70.06,-51.49 41.87,-81.86 86.31,-138.68 17.16,-21.93 53.02,-37.13 82.75,-78.1 29.05,-40.05 23.44,-56.13 53.36,-95.25 23.72,-31.03 50.06,-55.24 70.92,-90.03 13.06,-21.78 11.73,-22.41 25.26,-42.4l35.63 -43.54c49.88,-50.07 45.65,-17.37 40.79,-122.65 -114.23,-2.78 -181.1,90.21 -241.02,121.41 -27.45,14.29 -38.05,13.9 -64.35,31.37 -29.24,19.43 -24.16,23.92 -50.14,43.07 -34.61,25.5 -76.62,46.18 -116.95,70.74l-758.74 569.15c-105.94,97.22 -242.61,27.61 -364.95,-44.6 -53.73,-31.69 -201.98,-120.03 -185.62,-200.4 28.62,-53.79 -4.9,-3.45 37.48,-41.08 47.62,-42.29 84.97,-39.65 139.52,-73.84 27.25,-17.08 -11.29,-3.29 45.16,-22.31l155.93 -70.04c89.72,-45.94 145.91,-39.12 209.5,-75.28l264.69 -123.29c75.92,-44.22 167.39,-58.26 81.42,-168.33 -20.54,-26.32 -44.01,-49.25 -69.43,-78.31l-138.67 -156.17c-57.24,-75.23 -107.4,-79.64 -130.22,-174.35l487.66 1.92c55.75,-22.19 184.24,-294.15 175.76,136.56 -1.9,96.32 -27.79,166 -28.47,227.84 105.22,76.02 148.52,-6.85 270.17,-34.22 120.32,-27.08 176.86,-85.22 373.63,-110.84 69.73,-9.09 100.53,-33.53 150.02,-18.91 132.47,39.17 150.73,49.51 263.65,178.94 39.41,45.17 19,21.03 45.75,75.63 36.02,73.48 63.91,108.49 10.98,178.78l-301.64 329.08c-21.2,21.95 -43.45,35.97 -64.49,55.19 -26.27,24 -36.08,38.07 -60.12,60.9 -44.01,41.81 -100.98,75.65 -135.81,118.31l-110.85 131.13c-133.73,127.31 -41.65,139.75 -24.04,269.55 9.57,70.46 1.78,42.04 22.94,95.12 38.37,96.19 -15.99,110.14 69.36,188.67 141.91,-26.27 123.77,-187.11 126.89,-297.42 42.23,-28.49 23.14,-17.2 53.05,-47.61l467.62 -484.03c39.88,-35.82 18.83,-23.91 69.75,-53.68 73.54,-42.98 56.67,-71.57 177.06,-182.86l62.86 -58.1c63.03,-58.53 46.8,-97.45 43.22,-205.9 -136.3,-289.33 -6.99,-112.25 -93.52,-290.67 -16.96,-34.95 -19.43,-74.13 -33.66,-102.45l-59.38 -71.01c-106.83,-83.81 -92.77,-108.86 -230.22,-172.36l-44.56 -23.01c-19.49,-8.74 -26.32,-11.02 -51.18,-16.56 -119.82,-26.74 -151.9,-6.09 -228.83,22.2l-204.65 62.41c-34.68,8.6 -79.25,10.56 -116.96,20.99 -47.93,13.23 -29.19,21.21 -96.65,36.3 -41.68,9.33 -71.83,14.47 -119.9,11.03 -20.25,-261.99 -10.56,-105.89 -56.87,-199.53 -13.52,-27.36 -12.31,-67.03 -11.64,-108.35 1.2,-73.88 6.91,-80.68 -16.02,-119.46l-58.05 -62.56c-17.34,-11.31 -70.59,-33.4 -92.39,-42.18 -68.07,-27.45 -166.12,-23.61 -250.07,-22.47 -130.42,1.79 -571.31,18.02 -552.07,218.95 7.19,74.97 83.3,78.41 94.31,172.99 -47.95,0.05 -102.57,2.75 -136.87,9.99 -76.72,16.23 -274.59,93.72 -234.77,206.47l138.76 170.96c24.53,42.61 39.86,49.56 80.95,74.15 52.06,31.16 59.69,45.88 67.35,110.96 -109.74,79.17 -85.08,25.71 -164.36,76.87 -63.79,41.18 -110.66,40.33 -162.59,79.35 -54.89,41.25 5.13,21.1 -68,49.98 -98.43,38.87 -152.98,59.91 -244.38,131.97 -7.11,183.13 53.88,132.16 47.29,217.33 -190.38,77.6 -324.01,84.11 -316.87,228.07 5.88,118.39 119.25,168.94 231.28,255.2l34.97 32.13z"/>
  <path fill="#CCD3D9" d="M430.67 2862.69c-12.74,-95.03 12.43,-134.82 47.11,-265.98l136.43 -213.31c1.82,-2.2 4.28,-5.34 6.11,-7.52 1.81,-2.15 4.24,-5.29 6.07,-7.41 31.76,-37.06 127.44,-107.5 171,-121.86 88.68,-29.26 440.18,77.66 518.78,119.74 43.59,23.34 91.68,15.46 244.76,90.07l155.38 82.77c95.31,38.36 56.18,12.44 177.89,79.64l49.59 31.85c24.92,14.04 38.31,14.87 60.46,28.26 -65.74,109.86 -394.54,48.82 -589.82,89.28 -87.14,18.07 -87.1,23.74 -196.61,30.87 -267.45,17.42 -289.61,44.94 -402.44,53.9 -234.87,18.65 -273.19,68.1 -384.7,9.68zm3024.11 -2080.05c19.55,9.12 4.92,-1.21 28.08,19.95 0.47,0.43 24.43,27 25.5,28.32 21.01,25.8 20.85,39.63 55.12,50.59 275.07,15.61 51,-113.89 186.08,-121.42 120.98,-6.77 148.57,56.36 271.93,57.04 36.86,-62.34 69.98,-74.11 7.8,-145.23l-114.13 -111.02c34.6,-31.69 68.54,-38.31 68.2,-93.87 -0.41,-71.45 -28.31,-59.85 -131.54,-167.67 -124.42,-129.98 -142.99,-112.82 -191.06,-157.28 -122.3,-113.11 -263.02,-192.52 -434.67,-104.28 -55.92,28.76 -56.93,45.18 -88.16,71.24l-98.38 88.13c-30.53,31.68 -23.14,35.63 -29.41,93.35 -60.57,-56.25 -37.59,-15.07 -115.39,-105.78 -94.84,-110.58 -188.23,-55.63 -266.4,-7.92 -107.06,65.37 -48.77,21.14 -142.71,124.02l-84.59 127.95c-19.94,41.13 -20.21,30.27 -39.67,78.23 -45.94,113.17 37.72,-14.19 -115.64,130.04 -125.43,118 -135.56,166.1 -98.21,347.45 72.41,13.85 130.7,25.75 164.12,-37.27 25.23,-47.58 -1.83,-32.65 37.66,-85.18l121.91 -120.04c53.32,-49.2 134.39,-55.88 176.17,-30.07 55.7,34.4 15.23,34.42 68.52,107.53l88.97 98.21c36.05,44.18 64.11,88.61 110.32,130.23 93.05,83.84 115.17,233.42 175.4,252.89 50.24,16.25 55.35,-19.55 53.32,-67.67 -1.36,-32.85 -9.3,-51.87 -17.49,-76.55 87.57,-0.45 127.58,27.37 233.34,76.6 165.12,76.82 132.16,-119.49 130.8,-122.7 -7.95,-18.63 -61.68,-29.59 -101.78,-135.14 -21.65,-56.96 3.25,-36.7 -54.46,-63.48 -217.21,-100.76 -296.76,-38.24 -420.48,-77.22 -40,-12.58 -60.05,-23.88 -74.79,-59.31 21.79,-52.81 39.81,-53 133.8,-121.55 66.94,-48.83 88.14,-83.3 173.36,-75.66 63.72,5.71 125.13,53.14 168.67,84.54l139.89 119.96zm236.65 1285.63c-69.46,153.64 -82.24,88.26 -180.56,209.74l-77.55 83.24c-22.57,16.99 -23.18,12.21 -47,33.53 -33.41,29.88 -39.06,54.1 -68.78,93.1 -17.98,23.6 -16.44,21.71 -38.32,40.1l-280.29 284.47c-42.76,64.4 -253.09,284.39 -313.63,329.31 -66.85,49.61 -66.9,101.15 -151.06,183.4 -1.98,1.92 -4.8,4.75 -6.8,6.63l-82.25 80.5c-2.02,2 -5.11,4.51 -7.12,6.43l-204.47 235.51c-31.21,39.99 -53.67,51.38 -78.02,83.79 -39.84,53.04 -11.54,41.39 -67.93,92.99l-84.45 76.18c-20.99,23.06 -23.91,22.98 -35.41,41.89 -5.47,8.94 -5.73,13.41 -13.22,26.82l-127.13 157.08c-45.88,62.26 -45.86,82.99 -97.19,144.99 -1.82,2.2 -4.27,5.36 -6.13,7.5l-13.05 13.91c-6.39,6.62 -10.58,9.39 -20.3,19.32 -13.95,14.25 -4.24,4.21 -19.02,20.73 -1.82,2.04 -4.43,5.05 -6.23,7.12l-257.68 333.13c-25.95,25.31 6.49,31.87 -56.98,28.87 -58.53,-2.78 -24.02,2.42 -51.12,-35.05 -47.92,-66.28 -33.83,-115.98 -58.79,-169.62 -62.99,-135.31 -51.35,-274 -34.46,-436.25 11.69,-112.02 -18.95,-84.34 42.24,-201.67 21.39,-40.95 7.32,-20.19 32.93,-50.35l421.64 -382.47c83.27,-83.08 10.03,7.62 134.97,-106.48 133.47,-121.87 110.7,-89.59 262.18,-195.09l328.04 -260.92c31.16,-26.31 -4.69,-9.83 43.46,-35.36 41.89,-22.2 18.99,2.02 52.9,-28.89 138.84,-126.48 253.35,-170.48 283.37,-199.22 73.53,-70.44 6.86,-17.76 94.68,-66.79l106.71 -56.38c58.79,-28.66 21.4,-34.92 84,-73.4 26.82,-16.5 27.25,-10.69 51.5,-29.78l239.68 -161.13c35.15,-16.8 24.33,-14.05 49.75,-30.33 24.7,-15.82 29.87,-15.18 52.62,-27.97 59.01,-33.17 108.97,-100.79 204.31,-93.11zm130.12 3.54c19.37,-71.71 140.19,-194.92 198.23,-250.13 126.05,-119.88 6.3,-195.36 -167.3,-74.29l-324.23 197.94c-81.18,46.74 -157.75,77.69 -231.47,131.81 -35.1,25.75 -60.84,44.32 -102.91,70.96l-150.59 117.49c-35.11,27.76 -31.66,13.37 -58.89,34.74 -42.25,33.17 -10.56,24.28 -45.39,48.15 -12.43,8.53 -36.45,14.01 -55.45,25.05 -41.4,24.07 -5.32,10.18 -53.38,39.96 -47.47,29.41 -108.36,84.81 -152.98,102.61 -66.02,26.36 -56.67,37.84 -118.79,71.42 -36.18,19.57 -72.62,44.13 -96.29,75 -50.25,65.55 -123.53,110.8 -187.3,161.12l-115.41 72.77c-35.78,27.95 -53.8,48.02 -91.62,83.11 -57.56,53.4 -49.05,30.51 -112.37,64.79l-334.28 292.97c-32.62,31.95 5.83,3.65 -46.46,34.13 -23.65,13.79 -39.15,21.39 -59.64,34.77 -50.79,33.16 -43.64,49.17 -88.99,85.47 -15.71,12.57 -3.55,1.35 -20.88,17.91 -151.36,144.65 -229.04,139.06 -224.69,335.7l-104.4 99.99c-50.92,53.8 -103.16,99.9 -145.05,162.85 -39.33,59.12 -32.17,126.79 -53.64,200.57 -26.06,89.54 -34.87,224.37 -20.71,330.64 13.3,99.83 18.45,38.69 46.85,193.53 8.89,48.47 20.93,49.3 33.89,85.37 50.92,141.67 19.15,257.34 239.78,246.46 28.41,-63.15 31.19,-75.94 67.5,-126.27 17.74,-24.55 21.46,-47.29 66.25,-43.81 76.29,5.96 17.65,4.16 53.22,44.42 36.7,41.56 118.36,33.87 159.96,10.51l15.99 -11.12c2.31,-1.65 5.43,-4.08 7.66,-5.79 55.88,-42.94 67.55,-126 152.47,-208.52 65.63,-63.79 112.48,-158.94 172.07,-230.1l442.01 -535.58c21.53,-35.39 9.24,-34.43 37.72,-70.77 84.66,-108.02 231.53,-242.07 322.53,-361.02l100.14 -99.79c56.76,-78.01 132.46,-134.2 193.29,-209.25l90.37 -111.54c48.46,-44.82 57.33,-47.24 101.14,-99.02l232.79 -262.58c8.16,-11 35.24,-44.64 43.36,-52.1l87.01 -73.77c106.63,-114.91 204.37,-229.44 322.3,-335.66l14.41 -11.86c25.12,-23.91 3.41,-0.46 23.9,-27.68l141.5 -154.67c23.17,-24.73 27.22,-34.69 46.78,-60.98 59.59,-80.09 90.75,-71.71 75.14,-192.9 -120.93,-11.22 -159.2,53.58 -249.91,99.14 -57.94,29.1 -15.72,34.77 -75.25,37.89zm-3166.16 -411.69c1.87,-62.45 37.23,-87.22 70.43,-129.38 31.47,-40.01 36.09,-69.35 73.01,-115.52 47.14,-58.92 55.89,-23.25 115.18,-85.04 50.53,-52.67 50.02,-39.41 112.99,-75.4 101.06,-57.75 209.18,-58.88 304.79,9.03l175.92 119.87c30.75,24.44 15.28,18.24 50.24,42.78l230.34 199.76c57.45,86.02 116.53,89.55 179.46,168.1 1.78,2.21 4.07,5.47 5.86,7.67 80.68,100.11 146.62,167.23 271.93,210.68 92.64,32.11 125.39,46.53 224.48,15.28 3.03,-52.37 -31.16,-118.33 -82.47,-156.69 -41.32,-30.88 -57.55,-12.86 -60.43,-64.22 -3.39,-60.38 6.41,-27.17 52.34,-66.48 -4.44,-73.71 -32.83,-82.73 -64.02,-133.74 -37.96,-62.09 -113.22,-127.27 -149.87,-185.26 -1.63,-2.57 -3.49,-6.09 -5.06,-8.72 -59.12,-99.1 -113.64,-118.6 -184.58,-189.58l-155.15 -126.5c-74.83,-77.8 -242.98,-191.33 -335.12,-268.18 -213.61,-178.21 -260.46,-142.19 -420.25,-98.18 -122.55,33.75 -92.88,21.78 -181.25,87.25 -160.51,118.91 -234.52,177.28 -317.01,339l-51.45 79.21c-30.8,76.65 -63.65,94.2 -120.08,151.78 -104.14,106.26 -201.72,358.41 -22.78,375.65 20.42,1.97 42.6,0.62 65.52,2.7 117.26,10.6 135.44,43.08 209.84,55.24 14.97,2.45 50.32,4.14 59.8,7.01 46.36,14.05 19.63,-2.73 50.12,28.15 -24.35,11.28 -46.1,20.83 -76.17,34.4 -63.55,28.68 -143.86,88.04 -174.02,131.45 -7.88,11.34 -20.94,50.12 -33.74,74.52l-172.78 243.12c-63.27,59.39 -46.2,68.42 -91.39,122.65l-119.91 188.26c-55.02,75.61 -136.3,328.5 -57.03,394.19l55.12 38.66c34.89,23.09 27.92,20.69 83.67,20.22 69.4,-0.58 46.18,-2.83 81.46,-22.18 99.32,-54.47 257.68,-26.47 368.93,-50.19 64.16,-13.68 58,-35.08 165.88,-34.34 96.9,0.68 106.2,1.08 178.69,-19.02 99.47,-27.61 229.25,-32.27 332.31,-41.77 71.16,-6.54 64.6,-28.13 120.46,-36.04 89.29,-12.63 216.45,3.29 314.67,-9.66 180.3,-23.75 153.29,-63.64 260.44,-64.01 121.67,-0.43 62.52,-5.97 128.3,-31.64 44.68,-17.43 76.03,-8.87 125.41,-35.66l-1.93 -91.32c-30.14,-17.75 -62.02,-31.19 -95.36,-51.8l-42.02 -24.9c-44.76,-19.67 -37.39,4.03 -56.35,-28.7 -35.76,-61.67 41.6,-32.68 78.28,-55.47 37.49,-23.3 26.15,-59.94 23.93,-111.26 -55.05,-41.1 -125.95,-68.2 -180.55,-112.04 -56.23,-45.16 -129.19,-69.26 -200.87,-94.14l-200.45 -95.14c-64.49,-25.54 -164.36,-27.04 -214.36,-85.94 19.7,-14.42 0.99,-7.63 34.06,-14.14l69.33 5.7c35.84,4.9 66.01,2.52 97.87,13.89 41.25,14.71 15.84,21.15 81.87,36.34l68.25 13.68c75.21,25.53 139.4,28.37 199.92,54.67 84.97,36.93 47.88,42.57 171.99,30.3 41.63,-128.39 8.39,-101.79 -75.07,-137.75 -92.38,-39.8 -273.04,-86.15 -377.3,-102.92 -86.7,-13.93 -108.21,-41.97 -197.47,-47.83 -96.49,-6.35 -126.98,-24.47 -208.26,-47.09 -69.97,-19.46 -130.21,-13.87 -202.76,-38.54 -93.66,-31.82 -318.54,8.44 -365.77,-114.87z"/>
  <path fill="#CCD3D9" d="M6672.94 3465.69c66.19,11.28 24.54,73.35 181.57,65.15 4.96,-94.26 -7.71,-105.91 -33.25,-175.55 -43.12,-117.58 4.08,-153.92 -64.23,-260.65l-250.99 -486.28c-27.11,-44.26 -48.68,-96.19 -77.29,-137.42 -100.11,-144.36 -82.51,-131.94 -4.74,-243.05 34.62,-49.43 50.13,-60.33 119.84,-74.13l14.3 143.48c140.97,11.37 104.12,7.93 238.31,-162.9l168.78 -208.92c2.57,-2.96 10.22,-11.14 12.63,-14.25l298.56 -383.02c49.61,-104.57 34.04,-27.27 123.64,-158.32l28.78 -39.11c25.9,-36.8 46.96,-93.99 26.51,-156.84 -12.44,-38.17 -33.66,-34.6 -62.5,-102.14l0.73 -67.16c3.78,-111.18 16.13,-75.03 -39.39,-143.51l-11.55 -15.56c-89.71,-119.91 -402.68,-197.39 -560.63,-201.89 -279.38,-7.95 -315.32,6.15 -549.56,108.35l-263.02 164.76c-2.66,1.56 -6.17,3.29 -8.97,4.72 -2.84,1.48 -6.52,2.84 -9.45,4.21 -127.42,59.13 -23.48,36.15 -131.88,70.54 -46.42,14.73 -152.28,103.96 -243.85,93.41 -2.26,-3.39 -4.08,-13.22 -4.85,-11.21 -0.75,1.98 -3.54,-8.42 -4.54,-11.23 -38.37,-106.73 -15.55,-32.53 -68.55,-105.05l-88.88 -111.8c-40.95,-56.62 6.06,-38.03 -56.65,-90.49l-27.72 -26.35c-17.08,-23.96 -23.57,-51.96 -44.07,-77.02 -55.84,-68.2 -111.05,-101.36 -126.98,-118.21 -79.42,-4.3 -164.88,-7.93 -242.97,1.6 -184.89,22.54 -118.75,31.94 -194.96,45.9 -98.9,18.12 -181.57,51.81 -246.56,116.33 -79.16,78.57 -14.16,193.14 114.99,142.44 80.77,-31.69 45.52,-51.06 175.69,-66.64 350.21,-41.92 336.22,-15.4 486,208.35 22.31,33.32 22.14,40.45 47.73,73.17 84.17,107.73 97.85,178.85 158.58,203.14 73.69,29.47 136.06,-59.16 189.55,-87.2l224.55 -123.45c45.03,-23.7 15.14,-30.12 70.91,-48.79 128.25,-43.01 47.37,-41.18 122.62,-65.85 178.05,-58.42 59.46,-45.1 185.46,-57.81 85.57,-8.65 103.64,-30.07 215.62,-30.65l320.84 49.69 159.72 81.29c119.46,98.54 19.42,140.94 -63.03,267.71l-485.73 627.66c-32.48,37.98 -22.73,28.47 -61.81,59.69 -59.38,47.46 -51.57,76.28 -79.85,147.57 -81.09,-38.26 -68.52,-66.64 -160.99,-198.01 -56.91,-80.84 -111.03,-162.29 -103.18,-267.31 68.14,-43.48 41.66,-31.18 81.57,-79.11 38.24,-45.93 43.81,-18.48 95.88,-65.52l142.95 -112.9c2.49,-1.62 5.88,-3.66 8.35,-5.28 12.64,-8.18 15.02,-8.94 24.38,-15.56 117.81,-83.28 172.98,-154.28 161.47,-322.47 -49.99,-39.9 -215.75,-51.35 -288.2,-15.78 -27.4,13.44 -26.38,19.47 -48.18,30.6 -81.45,41.6 -50.45,-15.63 -115.18,57.21 -21.71,24.45 -20.52,24.24 -52.06,44.79l-142.08 109.34c-2.07,2.07 -4.77,5.02 -6.95,7.03 -2.21,2.05 -5.27,4.66 -7.58,6.63l-231.32 191c-3.36,29.59 -9.13,45.39 0.22,74.31l31.33 47.71c28.77,42.72 39.16,52.33 63.58,97.33l217.74 359.09c85.18,173.99 50.55,57.01 126.21,193.83l35.18 58.89c23.39,39.21 37.38,61.93 57.03,103.8 29.55,63.02 42.23,60.46 63.64,96.76 8.95,15.2 14.21,37.98 23.17,56.87l93.78 161.46c12.03,23.79 -0.52,3.06 15.32,26.2l154.1 285.2c19.54,89.03 -16.43,64.94 -25.45,141.08 57.7,126.51 155.82,182.19 207.78,316.12zm-2421.06 -2174.46c29.38,4.42 28.49,4.02 71.21,40.54 28.97,24.79 7.76,2.42 27.66,27.19 19.95,24.85 10.9,24.39 39.16,53.61 42.98,44.4 114.52,90.35 147.94,134.36 16.55,21.79 24.19,34.04 43.22,49.86l48.91 37.7c41.73,16.28 41.84,26.99 67.42,60.84 76.97,101.89 279.61,-97.13 352.52,-142.46 12.38,-145.32 -2.97,-73.59 -132.17,-212.22l-179.95 -182.25c-37.09,-37.63 -16.97,-26.73 -60.82,-58.95 -36.08,-26.52 -37.9,-26.58 -67.25,-54.14 -142.01,-133.29 -114.6,-118.07 -209.07,-76.09 -0.11,0.06 -307.73,75.39 -202.61,246.35 29.19,47.42 26.18,12.38 53.84,75.67zm-57.3 974.04c-44.65,14.81 -38.1,13.32 -58.34,46.95 -19.48,32.36 -31.82,47.14 -26.74,81.96 14.74,100.95 84.58,112.88 111.66,122.57 91.27,32.7 108.29,103.43 375.53,113.94 263.4,10.35 137.86,-72.3 293.82,-75.07 166.74,-2.96 156.92,40.43 268.08,-90.93 42.5,-50.24 78.99,-120.37 121.78,-120.77 62.71,23.75 3.24,-2.09 45.76,36.49l292 337.41c27.47,28.84 61.19,56.75 89.03,84.95 26.68,27.05 51.6,68.45 75.24,99.93 8.37,11.17 26.62,34.17 36.19,43.76l42.12 37.58c90.63,96.36 95.68,133.57 119.4,163.14 28.67,35.77 21.66,10.87 47.56,47.84 18.14,25.9 5.94,20.12 29.04,51.02 82.75,110.76 110.25,88 139.14,127.13 12.08,16.36 16.9,40.15 32.65,61.72l129.09 138.79c96.15,126.82 193.39,62.5 155.29,-73.24 -19.16,-68.28 -53.67,-33.87 -58.29,-125.84l-222.17 -370.05c-20.77,-55.55 -41.86,-140.79 -70.8,-186.26 -37.8,-59.39 -7.05,9.96 -31.74,-47.66 -66.72,-155.71 -26.52,-26.54 -84.18,-156.12 -24.71,-55.56 -108.37,-143.28 -146.12,-190.55 -34.6,-43.33 -1.24,-24 -72.86,-89.08 -118.01,-107.25 -92.37,-121.62 -201.39,-227.78 -106.06,-103.28 -36.7,-76.54 -102.88,-138.04 -86.48,-80.36 -95.4,-68.84 -155.77,-166.47l-93.09 0.24c-18.11,24.14 -28.57,31.85 -50.9,55.36 -89.29,94.04 -102.62,81.56 -159.2,149.06 -1.72,2.05 -4.48,4.9 -6.11,7.04 -17.65,23.02 -47.73,118.21 -165.64,158.67 -146.73,50.35 -354.13,-97.14 -428.87,-88.18 -89.74,10.76 -141.78,165.13 -268.28,180.5z"/>
 </g>
</svg>
