<?xml version="1.0" encoding="UTF-8"?>
<!DOCTYPE svg PUBLIC "-//W3C//DTD SVG 1.1//EN" "http://www.w3.org/Graphics/SVG/1.1/DTD/svg11.dtd">
<!-- Creator: CorelDRAW -->
<svg xmlns="http://www.w3.org/2000/svg" xml:space="preserve" width="6.06222in" height="1.64415in" version="1.1" shape-rendering="geometricPrecision" text-rendering="geometricPrecision" image-rendering="optimizeQuality" fill-rule="evenodd" clip-rule="evenodd"
viewBox="0 0 34920.1 9470.79"
 xmlns:xlink="http://www.w3.org/1999/xlink"
 xmlns:xodm="http://www.corel.com/coreldraw/odm/2003">
 <g id="Layer_x0020_1">
  <metadata id="CorelCorpID_0Corel-Layer"/>
  <path fill="#E4EBF2" d="M23570.1 1291.62c-17.03,118.24 -263.07,93.77 -391.29,168.09 -57.29,33.18 -8.3,12.88 -78.15,45.74 -176.32,82.96 -112.48,99.58 -250.46,180.34 334.75,2.15 717.56,-46.24 1078.01,-19.71l346.73 91.6c99.35,27.96 222.68,108.18 302.46,166.05 61.8,44.86 84.79,28.28 152.78,64.04 311.67,163.92 137.11,291.64 63.32,397.01 -99.33,141.76 -59.98,130.08 -206.33,285.16l-228.94 288.31c-10.02,11.57 -43.93,58.56 -52.82,70.8l-390.16 494.43c-30.21,38.55 -62.25,84.59 -90.96,131.06l-407.35 500.96c-81.55,73.66 -136.23,181.04 -187.05,283.71 -44.68,90.19 -55.97,57.15 -85.5,125.73 -59.46,138.02 17.64,252.64 -87.74,385.21 -89.9,-25.1 -42.86,-2.2 -93.3,-65.52 -28.48,-35.79 4.38,-19 -55.36,-85.25 -140.17,-155.35 -125.18,-188 -225.6,-339.54 -85.88,-129.52 -90.06,-179.09 -225.1,-340.9 -97.34,-116.63 -169.38,-260.37 -233.11,-403.42 -32.86,-73.77 -87.13,-35.17 -58.83,-156.91l537.23 -461.64c165.44,-149.74 528.59,-433.16 757.32,-443.95 38.21,-149.95 78.42,-61.28 164.15,-229.89 54.56,-107.38 51.34,-246.99 38.08,-388.43 -210.34,-82.14 -161.83,-160.4 -472.62,-104.59 -102.64,32.18 54.68,47.42 -170.04,87.52 -162.1,28.91 -236.31,122.62 -373.69,190.86 -109.9,54.54 -167.46,113.23 -248.87,187.48 -124.5,113.53 -279.24,175.98 -401.18,288.94l-328.68 311.26c-337.23,259.62 -113.37,321.96 3.08,562.65 22.63,46.83 18.19,56.81 44.38,100.42l232.79 330.06c64.07,99.94 29.48,130.83 86.13,212.95 75.22,109.08 192.67,190.86 245.67,310.87l149.77 273.93c33.9,44.38 31.61,24.24 55.06,86.74 47.96,127.77 45.79,88.83 97.52,176.69 48.06,81.6 25.6,119.47 100.49,219.07 133.14,177.12 189.16,309.92 308.56,502.28l253.32 458.62c30.73,59.73 36.76,54.9 53.36,95.48l86.95 184.53c48.49,72.98 14.94,35.95 44.88,107.79 36.1,86.65 11.16,19.78 56.72,85.34 55.72,80.17 32.84,105.23 81.76,189.27 58.4,100.31 67.24,66.36 60.12,222.81l-92.66 -67.79c-3.67,-3.63 -8.8,-8.98 -12.38,-12.75l-169 -175.82c-34.43,-49.69 -40.96,-59.33 -84.68,-111.24l-565.53 -663.07c-3.36,-4.04 -8.1,-9.48 -11.32,-13.65l-822.72 -971.95c-173.69,-160.36 -99.65,-179.86 -254.4,-310.85 -167.91,-142.08 -171.83,-215.42 -266.22,-298.85 -162.74,-143.85 -223.65,-254.16 -360.13,-401.61 -219.84,-237.51 -312.39,-97.2 -395.19,-2.63 -78.08,89.15 -178.77,120.47 -238.26,225.31 -117.43,207.01 -307.74,338.52 -436.53,524.44 -136.59,197.21 -272.91,125.39 -534.19,66.18 -90.03,-20.39 -88.49,-38.14 -167.25,-70.3 -245.11,-100.15 -231.84,-19.5 -493.62,-272.23 -112.6,-108.72 -131.19,-131.33 -295.09,-35.24 -9.52,190.63 0.25,117.07 45.61,242.16l-454.61 355.8c-63.3,96.27 -64.2,243.52 18.73,320.22l229.62 187.14c294.16,143.28 649.51,271.98 989.04,278.26 193.47,3.61 211.57,-34.83 284.77,-146.05l83.77 -12.95c251.03,-22.75 426.69,94.61 582.11,-131.65l234.86 -257.63c117.2,-132.99 176.41,-301.62 335.3,-224.36 100.35,48.85 290.83,251.71 353.89,332.01 63.88,81.35 102.01,136.91 166.66,228.37 25.29,35.83 57.87,75.07 86.74,110.31l597.78 705.2c3.47,3.83 8.14,9.43 11.63,13.27l127.59 168.95c39.91,57.31 68.01,62.8 114.09,104.05 55.58,49.85 114.91,155.01 173.78,220.95l124.37 121.96c35.81,37.4 3.02,2.47 23.56,25.38l508.47 620.14c65.27,77.06 28.76,39.64 74.5,124.82 44.31,82.53 30.48,43.22 89.94,104.77l301.62 313.8c125.8,118.06 149.18,81.69 320.35,47.51 42.75,-428.17 -272.37,-528.61 -265.59,-855.36 79.17,39.26 313.55,386.55 472.16,526.29 158.09,139.31 156.98,233.81 439.44,164.58l9.46 -326.98c-64.34,-69.69 -98.9,-51.41 -113.96,-171.99 -11.63,-93.09 13.13,-193.49 -16.08,-282.28 -49.39,-150.06 -151.35,-207.6 -198.98,-395.89 -10.91,-43.2 -16.83,-58.9 -41.09,-101.49l-54.25 -91.67c-28.96,-44.79 -33.54,-38.83 -64.63,-81.1l-269.19 -468.03c-29.89,-49.55 -29.16,-34.06 -57.74,-90.08l-107.9 -183.33c-21.39,-51.82 -12.86,-49.57 -47.6,-102.66l-101.51 -193.26c-84.41,-144.53 -223.52,-249.17 -137.43,-431.57l66.63 -85.95c34.4,-43.27 29.3,-39.85 65.4,-79.9 88.2,-97.86 165.8,-264.25 290.28,-305.91l16.15 277.83c12.27,40.14 63.14,55.27 137.16,41.73 63.25,-11.63 274.38,-221.14 315.21,-287.13l321.69 -443.13c46.33,-74.75 85.34,-120.56 143.87,-170.84 107.27,-92.14 169.66,-240.73 282.93,-334.57 106.75,-88.45 40.71,-70.67 109.45,-186.28 57.72,-97.02 136.16,-126.54 195.69,-217.46l482.32 -625.53c68.28,-110.85 289.85,-315 154.35,-481.55 -53.27,-65.49 -131.62,-100.51 -146.48,-192.77 -31.48,-195.17 113.62,-352.33 -138.43,-481.1 -153.15,-78.24 -266.76,-184.12 -416.8,-267.06 -103.89,-57.42 -257.29,-30.66 -362.63,-84.75 -201.36,-103.34 -163.6,-51.57 -393.67,-70.53 -128.09,-10.57 -850.75,-4.74 -850.75,-4.74zm-5277.62 688.67c-32.72,52.93 -16.58,21.25 -95.66,80.92l-85.2 71.94c-18.73,288.31 -16.24,227.89 131.08,374.69 126.05,125.59 30.96,78.42 197.64,171.83 93.68,52.55 346.41,387.91 571.63,582.67 31.16,26.94 39.55,27.76 69.96,52.93 309.01,255.45 316.61,544.03 662.75,313.78 38.35,-25.49 48.19,-24.08 80.69,-42.54 95.86,-54.56 34.56,-47.76 137.36,-106.43 37.49,-21.36 50.57,-22.09 81.87,-42.23 307.88,-198.25 -178.39,-463.23 -470.39,-787.66 -25.1,-27.94 3.83,-0.68 -37.44,-37.31l-242.11 -223.31c-32.54,-27.76 -37.31,-36.69 -72.82,-73 -53.61,-54.88 -95.77,-84.7 -133.08,-134.39 112.23,-78.88 101.33,-50.75 264.07,-71.73 125.8,-16.24 136.41,-39.23 321.28,-40.91 251.32,-2.29 492.96,2.38 693.75,-50.57 326.36,-86.02 262.23,-1.47 511.51,334.84 39.48,53.25 37.53,39.46 81.85,113.53 47.33,79.06 101.64,157.27 149.7,218.44 145.25,8.39 285.47,-33.61 305.36,-164.19 25.26,-165.91 -94.32,-154.78 -186.57,-296.45 -26.62,-40.84 -17.94,-32.66 -48.89,-73.8 -108.72,-144.64 -33.93,-120.08 -240.89,-374.78 -86,-105.79 -94.09,-47.26 -117.9,-170.18l-19.1 -20.39c-203.47,-238.58 -131.94,-251.43 -375.17,-452.2 -239.03,-197.35 -1624.1,41.77 -1800.81,318.56 -91.35,143.08 -25.01,260.28 60.89,336.57 -85.95,87.52 -256.99,209.23 -395.35,191.38z"/>
  <path fill="#E4EBF2" d="M28123.15 6746.9c-2.22,4.56 -6.1,10.89 -7.48,13.31 -1.43,2.38 -5.81,10.41 -7.57,13.4 -134.12,224.79 -253.25,535.62 -293.66,586.48 -121.01,152.33 -4.17,68.26 -157.43,308.4 -31.34,49.14 -137.54,328.95 -152.49,317.41 -79.83,157.39 -185.98,309.51 -320.63,452.52 -6.87,98.11 -44.68,164.89 616.94,-160.06 167.71,-147.84 15.92,36.06 122.71,-144.08 2.9,-4.9 6.76,-11.02 9.82,-15.83l104.93 -171.79c1.93,108.61 -2.09,233.29 26.49,317.43 291.82,59.71 320.22,-68.28 467.08,-287.86 38.26,-57.19 59.3,-83.61 115.18,-130.17l101.26 -94.64c3.2,-3.86 8.16,-9.12 11.16,-13.15l19.62 -28.64c74.5,-137.32 -33.61,-41.93 127.79,-217.89 3.47,-3.74 8.1,-9.39 11.45,-13.22 157.91,-180.18 197.39,-285.52 266.31,-373.08l583.08 -768.23c85.27,-111.1 69.12,-124.21 206.39,-159.52 21.02,80.64 39.94,135.05 66.11,202.18 26.49,68.03 31.66,115.59 56.4,189.77 30.09,90.37 50.05,78.63 85.86,161.99l125.98 393.81c35.97,202.52 27.85,93.21 99.83,270.44l373.51 997.21c26.72,105.16 15.33,117.16 69.74,202.4 118.15,185.15 29.98,358.88 255.15,361.85 259.76,3.42 171.13,-533.37 171.11,-917.68 58.01,29.35 40.96,20.27 74.91,130.01 49.28,159.41 168.34,201.11 159.09,398.03l78.17 100.9c34.63,47.35 48.33,71.05 76.68,119.9 308.54,20.64 251.52,-125.61 247.1,-570.72 -2.2,-224.22 -2.83,-943.21 -69.89,-1128.02 -50.53,-139.18 -37.01,-180.43 -41.18,-347.18 -3.45,-138.47 -30.55,-232.29 -33.2,-368.2 -1.97,-101.78 -31.11,-172.13 -21.88,-269.08 14.45,-151.56 -16.76,59.49 8.3,-38.85 26.67,-104.77 301.3,-56.04 383.35,-57.72 139.49,-2.9 278.38,-1.34 417.87,0.05 557.89,5.62 1052.14,57.4 1598.32,59.49 216.12,0.86 195.96,-15.78 322.71,-106.54 100.74,-72.14 215.9,-31.5 369.29,-50.62 103.05,-166.35 101.64,-279.06 -37.42,-439.03 -40.39,-46.47 -37.83,-90.42 -121.74,-62.75 231.27,-9.43 212.09,-96.9 186.37,-322.26 -102.37,-60.41 -189.64,-129.2 -296.65,-192.56 -129.81,-76.9 -225.92,-71.16 -352.1,-141.76l-170.18 -75.27c-122.89,-76.88 -193.97,-100.62 -347.45,-147.14l-704.77 -272.48c-62.16,-27.67 -111.37,-40.16 -188.48,-53.54 -420.77,-72.87 -173.6,-187.73 -847.8,-99.85 -63.79,127.47 -37.58,53.16 -77.7,103.32 -43.32,54.13 -45.33,11.36 -22.34,127.5 239.82,25.54 148.02,37.85 295.29,91.48 102.32,37.26 210.59,40.53 336.07,90.37 96.75,38.42 205.33,42.77 300.83,91.87 68.03,34.92 49.37,34.27 135.71,56.29 172.83,44.11 53.88,7.55 153.55,70.37 81.8,51.53 200,40.05 310.87,89.15 67.13,29.73 70.48,23.29 150.2,49.82 58.6,19.5 84.11,45.97 137.63,75.41l384.96 206.49c113.69,49.14 99.97,-14.74 101.62,111.71 -125.64,71.21 -531.26,-35.56 -681.44,-39.37l-1968 -1.34c-425.67,5.15 -315.48,46.31 -285.29,704.32 6.26,135.62 44.95,181.86 62.68,274.63 57.81,302.53 15.31,631.16 90.03,915.93 32.54,124.07 38.69,437.62 13.97,578.75l-28.57 81.01c-151.51,-0.98 -80.94,-14.92 -114.19,-145.41 -28.33,-111.15 -56.38,-29.32 -82.03,-181.47 -13.06,-77.47 -13.72,-162.78 -36.04,-216.49l-93.05 -173.15c-109.94,-268.4 -55.81,-218.39 -114.16,-403.56l-236.26 -518.52c-41.12,-88.33 -28.17,-130.63 -58.35,-217.44l-161.49 -349.65c-68.44,-202.97 -106.32,-224.08 -135.62,-381.61 -31.64,-170.38 -154.44,-258.28 -289.6,-116.95l-349.27 411.68c-132.19,191.36 -61.1,111.94 -236.35,280.35 -48.08,46.22 -232.29,357.39 -327.38,461.16l-329.92 429.64c-68.35,78.76 -119.47,205.94 -209.25,308.18 -56.08,63.86 -72.3,81.17 -121.76,150.2 -155.44,216.94 -143.44,235.26 -274,239.85 10.21,-160.24 94.05,-304.02 166.19,-421.97 26.15,-42.77 26.94,-58.03 48.35,-98.85l98.47 -193.65c89.53,-253.86 477.81,-860.62 591.43,-1108.24l115.89 -200.45c61.53,-151.51 159.97,-269.85 215.58,-405.44 25.33,-61.75 86.06,-103.07 123.69,-170.47 41.86,-75.04 63.05,-142.1 110.38,-208.91 35.4,-49.98 92.48,-118.18 124.73,-167.59 21.25,-32.57 40.57,-71.69 47.06,-104.8 17.28,-88.08 -13.52,-270.46 -177.98,-100.92 -62.12,64.04 -66.61,95.34 -157.12,139.09 -133.69,64.59 -259.17,77.47 -247.37,286.34 20.23,358.97 -53.04,185.92 -153.92,388.23 -55.31,110.92 7.28,78.85 -83.86,191.11 -83.32,102.6 -34.9,74.11 -91.26,182.02l-492.28 861.18c-68.31,141.54 -268.44,387.66 -273.77,401.7l-49.6 119.56zm-516.27 -2499.99c160.02,18.82 356.98,148.38 484.25,176.14 241.95,52.7 331.92,-77.58 434.92,-179.18l491.55 -1.86c99.74,-134.6 213.49,-200.43 344.01,-302.03 4.22,-3.29 10.25,-7.42 14.42,-10.7 4.13,-3.27 9.87,-7.69 13.95,-11 3.97,-3.24 9.43,-7.98 13.38,-11.25l727.59 -572.04c72.41,-38.17 106.11,-91.39 187.35,-102.35 -18.66,156 -230.21,387.82 -378.21,446.69 -93.16,37.03 -148.88,21.61 -164.24,142.01 -30.03,235.15 274.52,144.57 348.27,71.5 85.66,-84.79 174.15,-254.52 236.08,-332.99 104.96,-132.96 69.12,-169.75 172.88,-246.01 128.45,-94.41 76.77,-150.08 158.25,-254.27 31.45,-40.21 97.22,-68.08 151.72,-143.19 53.27,-73.43 42.98,-102.91 97.83,-174.65 43.5,-56.9 91.78,-101.28 130.04,-165.08 23.95,-39.94 21.5,-41.09 46.31,-77.74l65.34 -79.83c91.46,-91.8 83.71,-31.84 74.79,-224.88 -209.43,-5.1 -332.06,165.39 -441.91,222.61 -50.32,26.19 -69.76,25.49 -118,57.51 -53.61,35.63 -44.29,43.86 -91.94,78.97 -63.45,46.76 -140.49,84.68 -214.42,129.7l-1391.15 1043.54c-194.24,178.25 -444.83,50.62 -669.15,-81.78 -98.51,-58.1 -370.34,-220.07 -340.33,-367.43 52.48,-98.63 -8.98,-6.33 68.72,-75.31 87.31,-77.54 155.8,-72.71 255.81,-135.39 49.96,-31.32 -20.71,-6.03 82.8,-40.91l285.91 -128.43c164.51,-84.23 267.54,-71.73 384.12,-138.02l485.32 -226.06c139.2,-81.07 306.91,-106.81 149.29,-308.63 -37.67,-48.26 -80.69,-90.3 -127.29,-143.58l-254.25 -286.34c-104.96,-137.93 -196.92,-146.03 -238.76,-319.67l894.14 3.52c102.21,-40.68 337.82,-539.33 322.26,250.39 -3.49,176.6 -50.96,304.37 -52.21,417.76 192.92,139.38 272.32,-12.56 495.36,-62.75 220.61,-49.64 324.28,-156.25 685.07,-203.22 127.86,-16.67 184.33,-61.48 275.06,-34.68 242.88,71.82 276.36,90.78 483.41,328.09 72.25,82.82 34.83,38.55 83.89,138.68 66.04,134.73 117.18,198.91 20.14,327.79l-553.06 603.38c-38.87,40.25 -79.67,65.95 -118.24,101.19 -48.17,44 -66.15,69.8 -110.24,111.67 -80.69,76.65 -185.15,138.7 -249.01,216.92l-203.24 240.44c-245.2,233.43 -76.36,256.24 -44.09,494.23 17.55,129.2 3.27,77.08 42.07,174.4 70.35,176.37 -29.32,201.95 127.18,345.93 260.19,-48.17 226.94,-343.08 232.66,-545.32 77.42,-52.23 42.43,-31.55 97.27,-87.29l857.4 -887.47c73.11,-65.68 34.52,-43.84 127.88,-98.42 134.85,-78.81 103.91,-131.22 324.64,-335.28l115.25 -106.52c115.57,-107.31 85.81,-178.68 79.24,-377.53 -249.91,-530.49 -12.81,-205.81 -171.47,-532.94 -31.09,-64.09 -35.63,-135.91 -61.71,-187.84l-108.88 -130.2c-195.87,-153.67 -170.09,-199.59 -422.11,-316.02l-81.71 -42.18c-35.74,-16.03 -48.26,-20.21 -93.84,-30.37 -219.68,-49.03 -278.51,-11.16 -419.57,40.71l-375.23 114.43c-63.59,15.76 -145.3,19.37 -214.45,38.49 -87.88,24.27 -53.52,38.89 -177.21,66.56 -76.43,17.1 -131.69,26.53 -219.84,20.23 -37.12,-480.37 -19.37,-194.15 -104.27,-365.85 -24.79,-50.16 -22.56,-122.89 -21.34,-198.66 2.2,-135.46 12.68,-147.93 -29.37,-219.03l-106.43 -114.71c-31.79,-20.73 -129.42,-61.23 -169.41,-77.33 -124.8,-50.32 -304.59,-43.29 -458.51,-41.21 -239.12,3.29 -1047.51,33.04 -1012.22,401.45 13.18,137.45 152.74,143.76 172.92,317.18 -87.92,0.09 -188.07,5.03 -250.96,18.32 -140.67,29.75 -503.46,171.83 -430.46,378.57l254.43 313.46c44.97,78.13 73.09,90.87 148.43,135.96 95.45,57.13 109.45,84.11 123.48,203.45 -201.2,145.16 -156,47.15 -301.35,140.95 -116.95,75.5 -202.9,73.95 -298.11,145.48 -100.65,75.63 9.41,38.69 -124.69,91.64 -180.47,71.28 -280.48,109.85 -448.08,241.98 -13.04,335.77 98.79,242.32 86.7,398.48 -349.06,142.28 -594.08,154.21 -580.99,418.16 10.77,217.08 218.64,309.76 424.06,467.92l64.11 58.92z"/>
  <path fill="#E4EBF2" d="M789.63 5248.8c-23.36,-174.24 22.79,-247.19 86.38,-487.67l250.14 -391.11c3.33,-4.04 7.85,-9.8 11.2,-13.79 3.31,-3.95 7.78,-9.71 11.14,-13.58 58.24,-67.94 233.65,-197.1 313.53,-223.43 162.6,-53.66 807.07,142.4 951.19,219.55 79.92,42.79 168.09,28.35 448.78,165.14l284.88 151.76c174.76,70.33 103,22.81 326.16,146.03l90.92 58.4c45.7,25.74 70.23,27.26 110.85,51.82 -120.54,201.43 -723.39,89.51 -1081.44,163.69 -159.77,33.13 -159.7,43.52 -360.49,56.6 -490.37,31.93 -531.01,82.39 -737.88,98.83 -430.64,34.2 -500.9,124.87 -705.36,17.76zm5544.75 -3813.81c35.85,16.71 9.03,-2.22 51.48,36.58 0.86,0.79 44.79,49.51 46.76,51.93 38.53,47.31 38.24,72.66 101.05,92.75 504.34,28.62 93.5,-208.82 341.17,-222.63 221.82,-12.41 272.41,103.34 498.58,104.59 67.58,-114.3 128.31,-135.89 14.31,-266.29l-209.25 -203.56c63.43,-58.1 125.66,-70.23 125.05,-172.11 -0.75,-131.01 -51.91,-109.74 -241.18,-307.43 -228.12,-238.33 -262.18,-206.85 -350.31,-288.38 -224.24,-207.39 -482.25,-352.99 -796.98,-191.2 -102.53,52.73 -104.39,82.84 -161.65,130.63l-180.38 161.58c-55.97,58.08 -42.43,65.34 -53.93,171.15 -111.06,-103.14 -68.92,-27.62 -211.57,-193.94 -173.9,-202.74 -345.12,-102.01 -488.44,-14.51 -196.3,119.85 -89.42,38.76 -261.66,227.4l-155.1 234.61c-36.56,75.41 -37.06,55.49 -72.73,143.44 -84.23,207.51 69.17,-26.01 -212.02,238.44 -229.98,216.35 -248.55,304.55 -180.07,637.06 132.76,25.4 239.64,47.22 300.92,-68.33 46.26,-87.24 -3.36,-59.87 69.06,-156.19l223.52 -220.09c97.77,-90.21 246.4,-102.46 323.01,-55.13 102.12,63.07 27.92,63.11 125.64,197.16l163.12 180.07c66.11,81.01 117.54,162.47 202.27,238.78 170.61,153.71 211.16,427.98 321.6,463.68 92.12,29.8 101.49,-35.85 97.77,-124.07 -2.49,-60.23 -17.05,-95.11 -32.07,-140.36 160.56,-0.82 233.93,50.19 427.83,140.45 302.75,140.85 242.32,-219.09 239.82,-224.97 -14.58,-34.15 -113.1,-54.25 -186.62,-247.78 -39.69,-104.43 5.96,-67.29 -99.85,-116.38 -398.25,-184.74 -544.12,-70.12 -770.95,-141.58 -73.34,-23.06 -110.1,-43.79 -137.14,-108.74 39.96,-96.84 73,-97.18 245.33,-222.86 122.73,-89.53 161.61,-152.74 317.86,-138.72 116.84,10.48 229.44,97.43 309.26,155.01l256.49 219.96zm433.9 2357.23c-127.36,281.71 -150.79,161.83 -331.06,384.56l-142.19 152.62c-41.39,31.16 -42.5,22.38 -86.18,61.48 -61.25,54.79 -71.62,99.19 -126.11,170.7 -32.97,43.27 -30.14,39.8 -70.26,73.52l-513.91 521.58c-78.4,118.09 -464.04,521.44 -575.05,603.79 -122.58,90.96 -122.67,185.46 -276.97,336.27 -3.63,3.52 -8.8,8.71 -12.47,12.16l-150.81 147.59c-3.7,3.67 -9.37,8.28 -13.06,11.79l-374.89 431.82c-57.22,73.32 -98.4,94.21 -143.05,153.62 -73.05,97.24 -21.16,75.88 -124.55,170.5l-154.85 139.68c-38.49,42.27 -43.84,42.14 -64.93,76.81 -10.02,16.4 -10.5,24.58 -24.24,49.17l-233.09 288.01c-84.11,114.16 -84.09,152.17 -178.21,265.83 -3.33,4.04 -7.82,9.82 -11.25,13.74l-23.93 25.51c-11.72,12.13 -19.39,17.21 -37.22,35.42 -25.58,26.13 -7.78,7.71 -34.88,38.01 -3.33,3.74 -8.12,9.25 -11.43,13.06l-472.46 610.79c-47.58,46.4 11.91,58.44 -104.48,52.93 -107.31,-5.1 -44.04,4.44 -93.73,-64.27 -87.86,-121.53 -62.03,-212.65 -107.79,-311.01 -115.5,-248.1 -94.16,-502.39 -63.18,-799.86 21.43,-205.4 -34.74,-154.64 77.45,-369.77 39.21,-75.09 13.43,-37.01 60.37,-92.32l773.08 -701.26c152.67,-152.33 18.39,13.97 247.47,-195.24 244.72,-223.45 202.97,-164.26 480.71,-357.7l601.47 -478.4c57.13,-48.24 -8.6,-18.03 79.69,-64.84 76.81,-40.71 34.81,3.7 96.99,-52.98 254.56,-231.91 464.52,-312.57 519.56,-365.28 134.82,-129.15 12.59,-32.57 173.6,-122.46l195.65 -103.37c107.79,-52.55 39.23,-64.02 154.01,-134.57 49.17,-30.25 49.96,-19.59 94.43,-54.61l439.46 -295.43c64.45,-30.8 44.61,-25.76 91.21,-55.61 45.29,-29.01 54.77,-27.83 96.47,-51.28 108.2,-60.82 199.8,-184.81 374.6,-170.72zm238.58 6.49c35.51,-131.49 257.04,-357.39 363.46,-458.62 231.11,-219.8 11.54,-358.2 -306.75,-136.21l-594.49 362.92c-148.84,85.7 -289.24,142.44 -424.4,241.68 -64.36,47.22 -111.55,81.26 -188.68,130.11l-276.11 215.42c-64.38,50.89 -58.06,24.52 -107.97,63.7 -77.47,60.82 -19.37,44.52 -83.23,88.29 -22.79,15.65 -66.83,25.69 -101.67,45.92 -75.9,44.13 -9.75,18.66 -97.88,73.27 -87.04,53.93 -198.68,155.5 -280.48,188.14 -121.06,48.33 -103.91,69.37 -217.8,130.94 -66.33,35.88 -133.14,80.92 -176.55,137.52 -92.14,120.19 -226.49,203.15 -343.42,295.41l-211.61 133.42c-65.61,51.25 -98.65,88.04 -167.98,152.38 -105.54,97.9 -89.94,55.95 -206.03,118.79l-612.9 537.16c-59.8,58.58 10.68,6.69 -85.18,62.57 -43.36,25.29 -71.78,39.21 -109.35,63.75 -93.12,60.8 -80.01,90.15 -163.17,156.71 -28.8,23.04 -6.51,2.47 -38.28,32.84 -277.51,265.22 -419.96,254.97 -411.97,615.51l-191.43 183.33c-93.37,98.65 -189.14,183.17 -265.95,298.58 -72.12,108.4 -58.99,232.47 -98.36,367.75 -47.78,164.17 -63.93,411.38 -37.96,606.24 24.38,183.04 33.84,70.94 85.91,354.85 16.31,88.88 38.37,90.4 62.14,156.53 93.37,259.76 35.11,471.84 439.64,451.89 52.09,-115.8 57.19,-139.24 123.76,-231.52 32.52,-45.02 39.35,-86.7 121.46,-80.33 139.88,10.93 32.36,7.62 97.58,81.44 67.29,76.2 217.01,62.09 293.3,19.28l29.32 -20.39c4.24,-3.02 9.96,-7.48 14.04,-10.61 102.46,-78.74 123.85,-231.02 279.56,-382.33 120.33,-116.95 206.24,-291.42 315.5,-421.88l810.43 -981.99c39.48,-64.88 16.94,-63.14 69.17,-129.77 155.23,-198.05 424.51,-443.84 591.36,-661.93l183.6 -182.97c104.07,-143.03 242.86,-246.06 354.39,-383.67l165.69 -204.51c88.85,-82.19 105.11,-86.61 185.44,-181.56l426.83 -481.44c14.97,-20.16 64.61,-81.85 79.51,-95.52l159.54 -135.25c195.51,-210.68 374.71,-420.68 590.95,-615.44l26.42 -21.75c46.06,-43.84 6.26,-0.84 43.81,-50.75l259.44 -283.59c42.48,-45.33 49.91,-63.61 85.77,-111.8 109.26,-146.84 166.39,-131.49 137.77,-353.69 -221.73,-20.57 -291.89,98.24 -458.21,181.77 -106.23,53.36 -28.82,63.75 -137.97,69.46zm-5805.21 -754.85c3.42,-114.5 68.26,-159.93 129.13,-237.21 57.69,-73.36 66.18,-127.16 133.87,-211.82 86.43,-108.04 102.48,-42.64 211.18,-155.91 92.64,-96.56 91.71,-72.25 207.17,-138.25 185.3,-105.88 383.53,-107.95 558.84,16.56l322.55 219.78c56.38,44.81 28.01,33.45 92.12,78.44l422.34 366.25c105.34,157.73 213.65,164.19 329.04,308.22 3.27,4.06 7.46,10.02 10.75,14.06 147.93,183.56 268.83,306.61 498.58,386.28 169.86,58.87 229.91,85.32 411.59,28.01 5.56,-96.02 -57.13,-216.96 -151.22,-287.29 -75.77,-56.63 -105.52,-23.59 -110.81,-117.75 -6.21,-110.72 11.75,-49.82 95.97,-121.9 -8.14,-135.14 -60.19,-151.69 -117.38,-245.22 -69.6,-113.84 -207.6,-233.36 -274.79,-339.68 -2.99,-4.72 -6.4,-11.16 -9.28,-15.99 -108.4,-181.7 -208.37,-217.46 -338.43,-347.59l-284.48 -231.93c-137.2,-142.65 -445.51,-350.81 -614.45,-491.71 -391.65,-326.75 -477.56,-260.71 -770.54,-180.02 -224.7,61.89 -170.29,39.94 -332.33,159.97 -294.3,218.03 -430,325.05 -581.24,621.57l-94.34 145.23c-56.47,140.54 -116.7,172.72 -220.16,278.29 -190.95,194.83 -369.86,657.15 -41.77,688.76 37.44,3.61 78.1,1.13 120.13,4.94 214.99,19.44 248.33,78.99 384.74,101.28 27.44,4.49 92.26,7.6 109.65,12.86 85,25.76 35.99,-5.01 91.89,51.62 -44.65,20.68 -84.52,38.19 -139.65,63.07 -116.52,52.59 -263.77,161.42 -319.06,241.02 -14.45,20.8 -38.39,91.89 -61.87,136.64l-316.79 445.76c-116,108.9 -84.7,125.46 -167.57,224.88l-219.87 345.19c-100.87,138.63 -249.91,602.31 -104.57,722.76l101.05 70.89c63.98,42.34 51.18,37.94 153.42,37.08 127.25,-1.07 84.68,-5.19 149.36,-40.66 182.11,-99.88 472.46,-48.53 676.45,-92.03 117.63,-25.08 106.34,-64.32 304.14,-62.95 177.66,1.25 194.72,1.97 327.63,-34.88 182.38,-50.62 420.34,-59.17 609.3,-76.58 130.47,-12 118.45,-51.57 220.86,-66.08 163.71,-23.15 396.87,6.03 576.96,-17.71 330.58,-43.54 281.05,-116.68 477.51,-117.36 223.09,-0.79 114.64,-10.95 235.24,-58.01 81.91,-31.95 139.4,-16.26 229.94,-65.38l-3.54 -167.43c-55.27,-32.54 -113.71,-57.19 -174.85,-94.98l-77.04 -45.65c-82.07,-36.06 -68.56,7.39 -103.32,-52.61 -65.56,-113.07 76.27,-59.92 143.53,-101.71 68.74,-42.73 47.94,-109.9 43.88,-203.99 -100.94,-75.36 -230.93,-125.05 -331.03,-205.42 -103.1,-82.8 -236.87,-127 -368.3,-172.6l-367.52 -174.44c-118.24,-46.83 -301.35,-49.57 -393.04,-157.57 36.13,-26.44 1.81,-13.99 62.46,-25.92l127.11 10.45c65.72,8.98 121.03,4.63 179.45,25.47 75.63,26.96 29.05,38.78 150.11,66.63l125.14 25.08c137.91,46.81 255.58,52.02 366.55,100.24 155.8,67.72 87.79,78.06 315.34,55.56 76.34,-235.4 15.38,-186.64 -137.63,-252.57 -169.38,-72.98 -500.62,-157.95 -691.78,-188.71 -158.97,-25.54 -198.41,-76.95 -362.06,-87.7 -176.91,-11.63 -232.82,-44.86 -381.86,-86.34 -128.29,-35.67 -238.73,-25.42 -371.76,-70.67 -171.72,-58.35 -584.06,15.47 -670.64,-210.61z"/>
  <path fill="#E4EBF2" d="M14502.8 7261.54c121.35,20.68 44.99,134.48 332.92,119.45 9.09,-172.83 -14.13,-194.19 -60.96,-321.87 -79.06,-215.58 7.48,-282.21 -117.77,-477.9l-460.19 -891.6c-49.71,-81.14 -89.26,-176.37 -141.72,-251.96 -183.56,-264.68 -151.29,-241.91 -8.69,-445.63 63.48,-90.62 91.92,-110.62 219.73,-135.91l26.22 263.07c258.46,20.84 190.91,14.54 436.94,-298.67l309.47 -383.06c4.72,-5.42 18.73,-20.43 23.15,-26.13l547.41 -702.28c90.96,-191.72 62.41,-50.01 226.69,-290.28l52.77 -71.71c47.49,-67.47 86.11,-172.33 48.6,-287.56 -22.81,-69.99 -61.71,-63.43 -114.59,-187.28l1.34 -123.14c6.94,-203.86 29.57,-137.57 -72.23,-263.14l-21.18 -28.53c-164.49,-219.87 -738.31,-361.92 -1027.92,-370.18 -512.26,-14.58 -578.14,11.27 -1007.62,198.66l-482.25 302.1c-4.88,2.86 -11.32,6.03 -16.44,8.66 -5.22,2.72 -11.95,5.22 -17.33,7.71 -233.63,108.42 -43.04,66.29 -241.8,129.33 -85.11,27.01 -279.21,190.61 -447.1,171.27 -4.15,-6.21 -7.48,-24.24 -8.89,-20.55 -1.38,3.63 -6.49,-15.44 -8.32,-20.59 -70.35,-195.69 -28.51,-59.64 -125.68,-192.61l-162.97 -204.99c-75.09,-103.82 11.11,-69.74 -103.87,-165.91l-50.82 -48.3c-31.32,-43.93 -43.22,-95.27 -80.8,-141.22 -102.39,-125.05 -203.61,-185.85 -232.82,-216.74 -145.62,-7.89 -302.3,-14.54 -445.49,2.93 -338.99,41.32 -217.73,58.56 -357.45,84.16 -181.34,33.22 -332.92,95 -452.07,213.29 -145.14,144.05 -25.97,354.12 210.84,261.16 148.09,-58.1 83.46,-93.62 322.12,-122.19 642.11,-76.86 616.46,-28.23 891.1,382.02 40.91,61.1 40.59,74.16 87.52,134.16 154.33,197.53 179.41,327.93 290.76,372.47 135.12,54.04 249.46,-108.47 347.54,-159.88l411.72 -226.35c82.57,-43.45 27.76,-55.22 130.01,-89.47 235.15,-78.85 86.86,-75.5 224.83,-120.74 326.45,-107.11 109.01,-82.68 340.04,-106 156.89,-15.85 190.02,-55.13 395.35,-56.2l588.27 91.1 292.84 149.04c219.03,180.68 35.6,258.42 -115.57,490.85l-890.6 1150.83c-59.55,69.64 -41.68,52.21 -113.32,109.45 -108.88,87.02 -94.55,139.86 -146.41,270.57 -148.68,-70.14 -125.64,-122.19 -295.18,-363.06 -104.34,-148.23 -203.58,-297.56 -189.18,-490.12 124.93,-79.71 76.38,-57.17 149.56,-145.05 70.12,-84.2 80.33,-33.88 175.8,-120.13l262.09 -207.01c4.56,-2.97 10.77,-6.71 15.31,-9.68 23.18,-14.99 27.53,-16.4 44.7,-28.53 216.01,-152.69 317.16,-282.87 296.06,-591.25 -91.67,-73.16 -395.58,-94.16 -528.43,-28.94 -50.23,24.65 -48.37,35.7 -88.33,56.11 -149.34,76.27 -92.5,-28.67 -211.18,104.89 -39.8,44.83 -37.62,44.45 -95.45,82.12l-260.51 200.48c-3.79,3.79 -8.75,9.21 -12.75,12.88 -4.06,3.76 -9.66,8.55 -13.9,12.16l-424.13 350.2c-6.17,54.25 -16.74,83.23 0.41,136.25l57.44 87.47c52.75,78.33 71.8,95.95 116.57,178.46l399.23 658.4c156.19,319.02 92.69,104.52 231.41,355.39l64.5 107.97c42.88,71.89 68.53,113.55 104.57,190.32 54.18,115.55 77.42,110.85 116.68,177.41 16.42,27.87 26.06,69.64 42.48,104.27l171.95 296.04c22.07,43.61 -0.95,5.6 28.1,48.03l282.55 522.92c35.83,163.24 -30.12,119.06 -46.67,258.67 105.79,231.95 285.7,334.05 380.97,579.61zm-4439.05 -3986.91c53.86,8.1 52.23,7.37 130.56,74.34 53.11,45.45 14.22,4.44 50.71,49.85 36.58,45.56 19.98,44.72 71.8,98.29 78.81,81.42 209.98,165.66 271.25,246.35 30.34,39.96 44.36,62.41 79.24,91.42l89.67 69.12c76.52,29.84 76.72,49.48 123.62,111.55 141.13,186.82 512.67,-178.09 646.35,-261.21 22.7,-266.45 -5.44,-134.94 -242.34,-389.11l-329.95 -334.16c-68.01,-68.99 -31.11,-49.01 -111.51,-108.08 -66.15,-48.62 -69.49,-48.74 -123.3,-99.26 -260.37,-244.38 -210.11,-216.49 -383.33,-139.52 -0.2,0.11 -564.24,138.22 -371.49,451.68 53.52,86.95 48.01,22.7 98.72,138.75zm-105.07 1785.91c-81.87,27.15 -69.85,24.42 -106.97,86.09 -35.72,59.33 -58.35,86.43 -49.03,150.27 27.03,185.1 155.07,206.96 204.74,224.74 167.34,59.96 198.55,189.64 688.54,208.91 482.96,18.98 252.77,-132.55 538.72,-137.63 305.73,-5.42 287.72,74.14 491.53,-166.73 77.92,-92.12 144.82,-220.7 223.29,-221.43 114.98,43.54 5.94,-3.83 83.91,66.9l535.39 618.64c50.37,52.89 112.19,104.05 163.24,155.75 48.92,49.6 94.61,125.5 137.95,183.22 15.35,20.48 48.8,62.66 66.36,80.24l77.22 68.9c166.16,176.69 175.44,244.9 218.91,299.13 52.57,65.59 39.71,19.93 87.2,87.72 33.27,47.49 10.89,36.9 53.25,93.55 151.72,203.08 202.15,161.36 255.11,233.09 22.16,30 30.98,73.61 59.87,113.16l236.69 254.47c176.3,232.52 354.57,114.59 284.73,-134.28 -35.13,-125.18 -98.4,-62.09 -106.88,-230.73l-407.35 -678.49c-38.08,-101.85 -76.74,-258.15 -129.81,-341.51 -69.3,-108.9 -12.93,18.26 -58.19,-87.38 -122.33,-285.5 -48.62,-48.67 -154.35,-286.25 -45.31,-101.87 -198.71,-262.71 -267.92,-349.38 -63.43,-79.44 -2.27,-44 -133.6,-163.33 -216.37,-196.64 -169.36,-223 -369.25,-417.64 -194.47,-189.36 -67.29,-140.33 -188.64,-253.09 -158.57,-147.34 -174.92,-126.23 -285.61,-305.23l-170.68 0.43c-33.2,44.27 -52.39,58.4 -93.32,101.51 -163.71,172.42 -188.16,149.54 -291.89,273.3 -3.15,3.76 -8.21,8.98 -11.2,12.9 -32.36,42.2 -87.52,216.74 -303.71,290.92 -269.03,92.32 -649.3,-178.12 -786.35,-161.67 -164.53,19.73 -259.96,302.78 -491.89,330.94z"/>
 </g>
</svg>
